# Glyph 'I' — geometric sans-serif
# Procedurally generated by src/Tools/TypographyGen
# Cap height: 1.00   Stroke width: 0.15   Extrusion depth: 0.15
# Advance width: 0.250
# Vertices: 8   Normals: 6   Triangles: 12

o glyph_I
v 0.050000 0.000000 0.000000
v 0.200000 0.000000 0.000000
v 0.200000 1.000000 0.000000
v 0.050000 1.000000 0.000000
v 0.050000 0.000000 -0.150000
v 0.200000 0.000000 -0.150000
v 0.200000 1.000000 -0.150000
v 0.050000 1.000000 -0.150000
vn 0.000000 0.000000 1.000000
vn 0.000000 0.000000 -1.000000
vn -1.000000 0.000000 0.000000
vn 1.000000 0.000000 0.000000
vn 0.000000 1.000000 0.000000
vn 0.000000 -1.000000 0.000000
f 1//1 2//1 3//1
f 1//1 3//1 4//1
f 6//2 5//2 8//2
f 6//2 8//2 7//2
f 1//3 4//3 8//3
f 1//3 8//3 5//3
f 2//4 6//4 7//4
f 2//4 7//4 3//4
f 4//5 3//5 7//5
f 4//5 7//5 8//5
f 1//6 5//6 6//6
f 1//6 6//6 2//6
